<svg version="1" xmlns="http://www.w3.org/2000/svg" width="773.333" height="773.333" viewBox="0 0 580.000000 580.000000"><path d="M282.7 13.6c-.1.1-4.7.5-10.2.8-5.5.4-11.1.9-12.5 1.1-1.4.2-4.7.6-7.5 1-2.7.3-10.6 1.8-17.5 3.2C154.2 36 84.8 83 43.3 149.5c-10 16.1-10.7 18.2-6.2 20.6 2.5 1.3 5.7-2 11.9-12.1 26.5-43.5 73.1-84.6 121-106.8 17.7-8.2 42.1-16.9 52.9-18.9 1.4-.2 2.8-.6 3.2-.8.8-.6 13.9-3.4 18.9-4.1 1.9-.3 6-.9 9-1.4 3-.5 8.7-1.2 12.5-1.5 3.9-.4 8.4-.8 10-1.1 3.8-.5 38.7-.5 44 .1 2.2.2 6.9.6 10.5 1 3.6.3 7.2.7 8 1 .8.2 4 .7 7 1 13.6 1.6 40.4 8.6 58.4 15.1 8.9 3.3 10 3.5 11.4 2.1 2.4-2.5.4-4-13.6-9.5-20.8-8.3-47.4-15.5-65.1-17.7-3-.4-6.2-.8-7.1-1-6.1-1.2-46.2-2.8-47.3-1.9zM416.4 89.2c-.3 1.3-2.1 6.1-3.9 10.8-6.4 16.6-14.4 37.7-20.5 54-3.4 9.1-7.9 21-10.1 26.5-4.1 11-11.5 30.3-18.6 49-2.5 6.6-5.5 14.7-6.8 18-1.2 3.3-5.1 13.4-8.5 22.5-6.4 17.1-6.9 18.5-9 23.5-.6 1.6-4.5 11.8-8.5 22.5-15 39.7-15.2 40.2-16 38.3-.4-1-1.8-5-3.2-8.8-3.5-9.8-14.2-39.3-15.8-43.5-.7-1.9-4.3-11.8-8-22-20.2-56.1-20.3-56.4-24.4-60.7-3.4-3.6-8-5.5-13.1-5.5-4.1 0-9.4 1.5-43.5 12.3-3.3 1.1-7.4 2.8-9.2 3.9-13 7.9-11.3 28.9 2.9 36.1 5.3 2.7 11.1 2.2 24.6-2 5.7-1.8 10.5-3.1 10.6-2.9.2.2 2.1 5.5 4.4 11.8 2.2 6.3 12.5 34.4 22.7 62.5 10.3 28 19.1 52.3 19.7 54 .5 1.6 1.4 3.9 1.9 5s3.3 8.8 6.3 17.1 6.3 16.9 7.5 19.1c4.4 8.7 14 13.2 22 10.3 4.5-1.6 7.6-4.4 10.6-9.5 2-3.4 12.9-31.3 27.2-69.5 2-5.2 4.1-10.9 4.8-12.5 1.6-3.7 5.2-13.3 14.5-38 3.9-10.5 8-21.3 9-24 2.4-6.3 8.1-21 11.3-29.5 2.3-5.9 40.3-106.2 46.3-122.3l2.6-6.7 6.1-.1c10.6-.1 14.6-1.6 19.2-7.1 4.2-5 5.4-8.7 5-15.6-.6-9.6-4.3-14.8-12.4-17.7-3.4-1.2-9.1-1.5-25.7-1.5-21.2 0-21.3 0-22 2.2zM288.7 100.6c-.1.1-4.2.4-9.2.8-4.9.3-10.6.9-12.5 1.2-49.4 7.5-88.3 26.9-113 56.4-2.3 2.8-4.1 5.3-3.9 5.5.2.2 5.1-3.3 10.9-7.7 31.7-24.3 56.6-37.6 82.5-44.2 11.3-2.9 13.7-3.3 29-5.2 4.4-.6 33.5-.6 37 0 1.7.2 5.7.7 9 1.1 7.7.8 22.2 3.2 30.4 5.1 5.2 1.2 6.6 1.2 7.3.2.4-.7.8-1.6.8-1.9 0-2.5-25.4-8.8-42.3-10.5-5-.5-25.6-1.1-26-.8zM541.4 418.7c-33.7 53.5-74.4 89.8-129.3 115.2-18.4 8.5-45.2 17.2-63.8 20.7-4.8.9-9.5 1.8-10.4 1.9-.9.2-4 .6-6.9 1-2.9.4-6.2.9-7.4 1.1-4.9.9-22.1 1.8-35.6 1.8-19.9 0-40.1-1.7-54.3-4.5-2.9-.6-6.3-1.3-7.7-1.5-1.4-.3-4.5-1-7-1.5-2.5-.6-5.2-1.2-6.1-1.4-6.3-1.3-35.6-10.8-39.3-12.7-1.5-.8-2.2-.6-3.3.8-.7 1-1.3 2.1-1.3 2.5 0 1.7 26.2 12 42.5 16.8 8.4 2.4 22.2 5.6 29 6.7 2.8.4 5.7.9 6.5 1.1 14.1 3.2 67.2 3.8 81.9.8 1.2-.2 4.2-.6 6.5-.9 16-1.9 50.7-10.9 64.1-16.7 1.1-.4 4.9-2 8.5-3.5 24.5-10 50.2-25 72-42.2 11.8-9.4 35.4-32.9 44.4-44.2 13.8-17.5 28-40.6 26.9-43.8-1.9-5.1-5.7-4.2-9.9 2.5z"/><path d="M425 430.6c-44.8 35.3-81.5 49.6-127.5 49.8-15.4.1-28-.6-36-1.9-9.5-1.6-9.5-1.6-22.3-4.1-6.5-1.3-8.6-1.4-9.5-.5-.9 1-.8 1.6.6 2.6 1.8 1.3 12.6 4.9 17.7 5.9 1.4.2 4.5.9 7 1.4 14.6 3.3 51.2 3.7 66 .8.8-.1 3.8-.6 6.5-1 6.5-1 25.8-6 33.8-8.8 24.2-8.3 45.8-21.1 62.3-37 6.1-5.9 13.2-14.9 11.7-14.7-.4 0-5.1 3.4-10.3 7.5z"/></svg>